<?xml version="1.0" encoding="UTF-8"?>
<svg id="Capa_1" data-name="Capa 1" xmlns="http://www.w3.org/2000/svg" viewBox="0 0 1042.5 479.2">
  <defs>
    <style>
      .cls-1 {
        fill: #fff;
      }
    </style>
  </defs>
  <path class="cls-1" d="M1020.6,105.5l-3.3-6.7-6.7-6-28.6-16.6-18.6-10.7-34.6-20-16-9.3-12-6.7-10.7-5.3-6-1.3-.7,.7-6.7,2-28,16-12.6,7.3-14,8-15.3,8.7-16,9.3-15.3,8.7-19.3,11.3-4.7,4-2,8-.7,20v115.8l.7,5.3,1.3,4,4,6,3.3,2.7,7.3,4.7,19.3,11.3,17.3,10,15.3,8.7,17.3,10,37.3,21.3,8,3.3,5.3,.7,6.7-1.3,10.7-5.3,34.6-20,18.6-10.7,17.3-10,16-9.3,18-10,10-6.7,2.7-4,1.3-7.3V107.5l-.5-2Zm-251-2l15.3-8.7,11.3-6.7,17.3-10,15.3-8.7,14-8,15.3-8.7,10-6h1.3l-.7,3.3-8.7,19.3-10.7,23.3-10,22-8.7,19.3-1.3,5.3-.7,13.3-.7,37.9-3.3-2.7-6.7-10.7-5.3-7.3-11.3-16.6-8.7-12.6-10.7-15.3-6.7-10-6.7-9.3,1.1-2.4Zm151.8,31.9l4.7,4,1.3,3.3v68.6l-2,4.7-3.3,2.7-9.3,.7h-60.6l-5.3-1.3-3.3-4.7-.7-2v-66.6l2-6,3.3-2.7,1.3-.7h71.9Zm-34,163.8l-6.7,14-3.3-.7-14-8-15.3-8.7-16-9.3-16.6-9.3-16-9.3-17.3-10-14-8-4.7-5.3V124.1l3.3,3.3,4.7,7.3,10.7,15.3,14.6,21.3,11.3,16.6,7.3,10.7,12.6,18.6,6.7,9.3,4,3.3,8,2.7,6,.7,64.6,.7-.7,3.3-9.3,20-11.3,23.3-8.6,18.7Zm98.5-39.9l-17.3,10-16,9.3-15.3,8.7-17.3,10-10.7,6-8.7,5.3-2-.7,7.3-14.6,8-18,10.7-22,7.4-15.3,8-17.3,1.3-7.3,.7-51.3,3.3,3.3,5.3,8,8.7,12.6,10.7,15.3,5.3,8,14,20.6,7.3,10.7,4.7,6.7,.7,2.7-16.1,9.3Zm21.4-30l-2-.7-4.7-6.7-12-18-14-20.6-8.7-12.6-19.3-28.6-9.3-14-13.3-6-4.7-.7-66.6-.7,.7-3.3,12-26,12.6-27.3,8.7-19.3,2-4,3.3,.7,18,10,18.6,10.7,17.3,10,15.3,8.7,17.3,10,16.6,9.3,9.3,6,2,2.7,.7,6.7v113.7h.2Z"/>
  <path class="cls-1" d="M21.2,326.5H328.8v10.1H21.2v-10.1Z"/>
  <path class="cls-1" d="M452,237.3h8l3.3,2,.7,1.3v4l-3.3,3.3-6.7,4.7-6,3.3-2.7-1.3,.7-2.7,6.7-4.7,5.3-3.3,.7-2-12.6,1.3-16,3.3-17.3,4.7-11.3,4-1.3,4-8,36.6-9.3,43.3-.7,2.7,11.3-2.7,5.3-.7h11.2v3.3l-.7,.7-16.6,2-11.3,2.7-2.7,10.7-8,39.9-2,11.3-.7,8,3.3,.7v3.3l-4,6-2,1.3h-3.3v-8.7l3.3-23.3,8-39.3,2-8-14.6,6.7-10.7,6.7-6.7,4.7-2-.7,.7-3.3,3.3-3.3,9.3-6,6.7-4,13.3-6h1.3l2.7-11.3,12-55.9,4-17.3v-2l-18,7.3-16,7.3-14.6,8-8,4.7-2.7-.7v-2.7l3.3-2.7,12.6-7.3,10-5.3,19.3-8.7,15.3-6,1.3-3.3,.7-5.3h4l.7,2-.7,4.7,16.6-5.3,15.3-4,18.3-2.7Z"/>
  <path class="cls-1" d="M490.6,261.9l2.7,.7,.7,1.3-6,25.3,22.6-.7h38.6l14.6,.7,4.7,1.3v4h-82.6l-1.3,7.3-9.3,41.3-7.3,35.3-6,32.6-1.3,8-.7,14-.7,.7h-5.3v-6l2.7-18.6,7.3-37.9,6-27.3,6.7-30.6,4-17.3,.7-1.3-17.3,.7h-26l-.7-.7v-3.3l1.3-.7,41.3-1.3h2.7l2.7-12,4-14.6,1.2-.9Z"/>
  <polygon class="cls-1" points="126.2 238.4 126.2 191.84 102.89 223.4 80.3 191.91 80.3 238.4 72.9 238.4 72.9 177.1 79.63 177.1 102.82 210.86 127.09 177.1 133.9 177.1 133.9 238.4 126.2 238.4"/>
  <path class="cls-1" d="M73.8,178.1h5.3l23.7,34.5,24.8-34.5h5.3v59.3h-5.7v-48.6l-24.3,32.9-23.6-32.9v48.6h-5.4v-59.3h-.1Z"/>
  <path class="cls-1" d="M306.84,123.2c-13.42,0-25.15-8.15-29.19-20.28-4.32-12.97,1.26-28.9,12.71-36.26,3.11-2,6.73-3.4,10.47-4.04,1.88-.35,3.85-.53,5.85-.53,3.09,0,6.21,.42,9.28,1.25,9.15,2.58,19.04,9.52,19.14,18.65v1.01s-7.12,0-7.12,0l-.23-.69c-2.35-7.15-10.01-10.57-11.53-11.19-2.57-1.06-5.35-1.6-8.28-1.6-9.33,0-18.1,5.3-21.84,13.2-5.08,10.74-.38,25.03,10.07,30.59,3.08,1.66,6.69,2.54,10.44,2.54,6.45,0,12.85-2.56,17.11-6.85,3.31-3.33,5.15-7.46,5.35-12.01-7.68,.02-23.3,.2-23.47,.2h-.78s-1.93-7.3-1.93-7.3h31.9l.24,.66c2.86,7.84-1.52,18.94-5.92,23.44-5.86,5.93-13.77,9.2-22.27,9.2Z"/>
  <path class="cls-1" d="M301,63.6c4.8-.9,9.9-.6,14.7,.7,7.8,2.2,18.3,8.6,18.4,17.7h-5.4c-2.1-6.4-8.4-10.3-12.1-11.8-11.4-4.7-26.1,.9-31.4,12.1s-.4,26.1,10.5,31.9c13.7,7.4,34.5-1.3,34.4-18.2-7.3,0-24.5,.2-24.5,.2l-1.4-5.3h29.9c2.7,7.4-1.4,18-5.7,22.4-15.3,15.5-42.9,10-49.8-10.7-4.2-12.6,1.1-27.9,12.3-35.1,3.1-2,6.6-3.3,10.1-3.9Z"/>
  <path class="cls-1" d="M770.9,322.9c2.2-.2,5.2,1,6.7,2.5,1.2,1.1,2.1,2.6,3.2,3.8-.4,.4-.8,.9-1.3,1.3-.9,.8-.8,.9-1.9,.2-2.3-1.4-4.5-3.2-7.3-2.6-2.1,.4-3.7,2.1-5,3.9-2.8,3.7-4.6,7.8-5.9,12.3-.2,.7-2.4,8-1.4,8.1,.7,.1,1.5-.3,2-.8,.5-.6,.8-1.3,1.2-1.9,.7-1.2,1.6-2.3,2.4-3.4,0-.4,1.3-1.6,1.6-2,.6-.8,1.3-1.6,1.9-2.4,1.3-1.6,2.6-3.3,3.8-4.9,.9-1.1,1.7-2.5,2.9-3.3,.7-.5,1.6-1.6,2.2-1.1,2.1,1.8,1.2,7,1.8,10.4,.4,2.2,.8,4.5,1.2,6.7,.6,3.3,.3,7.7,3.2,9.4,4.5,2.6,9-5.3,11.9-9.6,2-2.9,3.6-6.1,5.4-9.1,1.1-1.8,2-4.2,3.8-5.3,.9-.6,2.2-.8,2.6,.4,.6,1.5-.9,4.4-1.5,5.8-3,7-7.4,13.3-12.8,18.6-1.3,1.2-2.6,2.4-4.2,3.2-2.8,1.4-6.1,1-8.5-1-2.5-2.1-4-5.2-4.8-8.3-.9-3.4-.6-7.5-2.2-10.6,.2,.4-3.5,4.9-3.9,5.4-1.8,2.3-3.7,4.6-5.7,6.7-1,1-2,2-3.2,2.6-1.6,.7-3.5,.7-5.1-.1-1.2-2.2-1.5-4.7-1.4-7.2,.2-3.8,2-7.6,2-11.4l-4,5.3-4.7,6-8,8c-.8,.8-2.1,1.3-3,1.9-3,2-7.4,3.7-10.9,1.8-1.7-1-2.9-2.7-3.4-4.6-.6-1.9-.6-3.9-.5-5.8,.2-5.2,1-10.3,2.6-15.3,.2-.6,.4-1.2,.8-1.8,1-1.4,3.1-1.8,4.6-.9-1.8,7.6-2.5,15.4-2,23.1,0,.2,0,.4,.2,.6,.1,.1,.3,.2,.5,.2,2.3,.1,4.4-1,6.3-2.2,4.2-2.8,7.8-6.5,11.2-10.2,2.9-3.2,5.8-6.6,7.1-10.8,.2-.6,3.1,1.1,3.4,1.3,2,1.1,5.2-4.8,6.2-6.1,2-2.5,4.4-4.8,7.4-6.1,.7-.3,1.4-.6,2.2-.6,.1-.1,.2-.1,.3-.1Z"/>
  <polygon class="cls-1" points="230.39 123.3 197.36 77.82 196.79 121.88 195.55 123.3 189.4 123.3 189.4 61.8 195.01 61.8 228.64 108.46 229.31 61.8 236.7 61.8 236.7 123.3 230.39 123.3"/>
  <path class="cls-1" d="M190.3,62.8h4.2l35.1,48.7,.7-48.7h5.4v59.5h-4.8l-34.5-47.5-.6,46.7-.7,.8h-4.7V62.8h-.1Z"/>
  <polygon class="cls-1" points="512.37 238.3 481.6 192.67 481.6 238.3 473.6 238.3 473.6 177 477.6 177 477.6 177.1 482.44 177.1 512.9 224.02 512.9 177.8 520.9 177.8 520.9 238.3 512.37 238.3"/>
  <path class="cls-1" d="M476.6,178.1h5.3l32,49.3v-48.6h6v58.5h-7l-32.3-47.9v47.9h-6v-59.3h2v.1Z"/>
  <path class="cls-1" d="M624.71,123.86c-6,0-11.76-1.91-16.22-5.37-4.6-3.56-7.62-13.58-7.75-14.01l-.31-1.04,6.09-1.28,.35,.66c.3,.55,.6,1.21,.92,1.9,1.11,2.43,2.62,5.75,5.72,8.19,1.05,.76,2.19,1.41,3.27,1.86,2.45,.99,5.1,1.49,7.85,1.49,3.82,0,7.54-.98,10.76-2.84,.87-.48,1.83-1.08,2.46-2.07,.6-.86,.76-1.92,.85-2.95,.23-2.59-.15-4.63-1.13-6.05-.98-1.42-2.67-2.34-4.32-3.17-3.01-1.42-6.58-2.64-11.2-3.83-3.76-1.01-8.44-2.26-12.29-4.73-6.36-4.13-8.79-11.15-6.2-17.9,1.9-5.1,6.68-9.25,12.47-10.81l.07-.02h.07c.53-.07,1.06-.15,1.59-.23,1.07-.16,2.17-.32,3.27-.39,.51-.03,1.01-.04,1.51-.04,3.32,0,6.71,.57,10.07,1.69,1.7,.57,4.2,1.52,6.22,3.18,2.08,1.77,3.38,4.08,4.75,6.71,.57,1.04,2.59,5.74,2.71,7.07l.1,1.09h-5.94l-.3-.46c-.68-1.06-1.34-2.14-1.94-3.12-.8-1.3-1.49-2.43-1.93-3.03-1.8-2.54-4.54-4.14-8.39-4.91-1.49-.31-3.01-.46-4.51-.46-2.27,0-4.52,.35-6.69,1.03-1.9,.61-4.46,1.79-5.86,3.98-1.38,2.19-1.22,5.45,.39,7.92,1.32,1.89,3.39,3.46,6.15,4.63,2.94,1.27,6.03,2.01,9.31,2.8,.75,.18,1.5,.36,2.25,.55,3.77,.96,8.58,2.52,12.43,6.03,1.92,1.8,3.34,3.84,4.25,6.06,1.61,4.29,.98,9.48-1.6,13.24-1.59,2.34-4.08,4.34-7.39,5.94-3.65,1.74-7.77,2.66-11.92,2.66Z"/>
  <path class="cls-1" d="M621.1,62.3c3.8-.2,7.6,.4,11.2,1.6,2.1,.7,4.2,1.6,5.9,3,2,1.7,3.3,4.1,4.5,6.4,.6,1.1,2.5,5.6,2.6,6.7h-4.3c-1.6-2.5-3.1-5.1-3.9-6.2-2.2-3.1-5.5-4.6-9-5.3-3.9-.8-7.9-.6-11.7,.6-2.5,.8-5,2.2-6.4,4.4-1.7,2.7-1.3,6.4,.4,9,1.6,2.3,4,3.9,6.6,5,3.7,1.6,7.7,2.4,11.7,3.4,4.3,1.1,8.6,2.7,12,5.8,1.7,1.6,3.1,3.5,4,5.7,1.5,4,.9,8.8-1.5,12.3-1.7,2.5-4.3,4.3-7,5.6-8.6,4.1-19.5,3.3-27.1-2.6-4.4-3.4-7.4-13.5-7.4-13.5l4.3-.9c1.3,2.4,2.7,7.1,6.9,10.4,1.1,.8,2.3,1.5,3.5,2,6.2,2.5,13.6,2,19.5-1.4,1.1-.6,2.1-1.3,2.8-2.4,.7-1,.9-2.2,1-3.4,.2-2.3,0-4.8-1.3-6.7-1.1-1.6-2.9-2.6-4.7-3.5-3.6-1.7-7.5-2.9-11.4-3.9-4.1-1.1-8.4-2.3-12-4.6-5.7-3.7-8.3-10.2-5.8-16.7,1.9-5.1,6.6-8.8,11.8-10.2,1.6-.2,3.2-.5,4.8-.6Z"/>
  <polygon class="cls-1" points="564.8 238.4 564.8 177.7 601.4 177.7 601.4 185.7 572.1 185.7 572.1 203.7 598.7 203.7 598.7 211 572.1 211 572.1 231 601.4 231 601.4 238.4 564.8 238.4"/>
  <path class="cls-1" d="M565.8,178.7h34.6v6h-29.3v20h26.6v5.3h-26.6v22h29.3v5.4h-34.6v-58.7Z"/>
  <polygon class="cls-1" points="527.6 123.2 527.6 62.5 564.2 62.5 564.2 70.5 534.9 70.5 534.9 88.5 561.5 88.5 561.5 95.8 534.9 95.8 534.9 115.8 564.2 115.8 564.2 123.2 527.6 123.2"/>
  <path class="cls-1" d="M528.6,63.5h34.6v6h-29.3v20h26.6v5.3h-26.6v22h29.3v5.4h-34.6V63.5Z"/>
  <polygon class="cls-1" points="454 123.2 454 62.5 461.3 62.5 461.3 115.8 490.6 115.8 490.6 123.2 454 123.2"/>
  <path class="cls-1" d="M455,63.5h5.3v53.3h29.3v5.4h-34.6V63.5Z"/>
  <polygon class="cls-1" points="377.1 123.2 377.1 62.5 413.7 62.5 413.7 70.5 384.4 70.5 384.4 88.5 411 88.5 411 95.8 384.4 95.8 384.4 115.8 413.7 115.8 413.7 123.2 377.1 123.2"/>
  <path class="cls-1" d="M378.1,63.5h34.6v6h-29.3v20h26.6v5.3h-26.6v22h29.3v5.4h-34.6V63.5h0Z"/>
  <path class="cls-1" d="M296.88,238.3l-15.2-21.3h-13.79v21.3h-7.3v-60.6h21.5c7.63,0,20.61,3.96,20.9,18.78,.18,8.88-4.3,15.5-12.63,18.72l14.11,23.1h-7.6Zm-28.98-29.17c2.12,.06,7.24,.19,10.71,.19,.74,0,1.41,0,1.96-.02,3.24-.1,6.3-.19,9.24-1.42l.54-.27c2.48-1.29,4.34-3.34,5.1-5.62,.48-1.45,.55-3.03,.55-4.38,0-1.67,0-3.26-.46-4.82-1.87-6.79-8.87-7.73-16.16-7.73-.96,0-1.9,.01-2.8,.03l-1.06,.02h-7.61v24.03Z"/>
  <path class="cls-1" d="M302,196.5c-.3-15.5-14.7-17.8-19.9-17.8h-20.5v58.6h5.3v-21.3h15.3l15.2,21.3h5.3l-13.8-22.6c-.1-.2,13.4-3.1,13.1-18.2Zm-11.2,12l-.6,.3c-3.1,1.3-6.3,1.4-9.6,1.5-3.9,.1-13.7-.2-13.7-.2v-26h8.6c7.7-.1,18.5-.7,21,8.4,.5,1.7,.5,3.4,.5,5.1,0,1.6-.1,3.2-.6,4.7-.9,2.7-3.1,4.9-5.6,6.2Z"/>
  <polygon class="cls-1" points="638.82 238.3 638.69 231.71 669.54 185 638.72 185 637.76 177.7 680.15 177.7 679.26 184.07 647.58 231 680.7 231 680.7 238.3 638.82 238.3"/>
  <path class="cls-1" d="M644.4,178.7h34.6l-.7,5-32.6,48.3h34v5.3h-39.9l-.1-5.3,28.6-43.3,3.1-4.7h-31.8l-.7-5.3h5.5Z"/>
  <polygon class="cls-1" points="357.6 238.3 357.6 185 337.6 185 337.6 177.7 385 177.7 385 185 365 185 365 238.3 357.6 238.3"/>
  <path class="cls-1" d="M340.1,178.7h43.9v5.3h-20v53.3h-5.4v-53.3h-20v-5.3h1.5Z"/>
  <path class="cls-1" d="M216.82,238.3l-5.5-14h-28.96l-6,14h-7.86l25.23-60.6h7.25l23.68,60.6h-7.85Zm-7.52-21.3l-12.26-29.3h-.63l-10.58,29.3h23.47Z"/>
  <path class="cls-1" d="M200.3,178.7h-5.9l-24.4,58.6h5.7l6-14h30.3l5.5,14h5.7l-22.9-58.6Zm10.5,39.3h-26.4l11.3-31.3h2l13.1,31.3Z"/>
  <path class="cls-1" d="M145.62,123.1l-5.5-14h-28.96l-6,14h-7.86l25.23-60.6h7.25l23.68,60.6h-7.85Zm-7.62-21.3l-12.26-29.3h-.63l-10.58,29.3h23.47Z"/>
  <path class="cls-1" d="M129.1,63.5h-5.9l-24.4,58.6h5.7l6-14h30.3l5.5,14h5.7l-22.9-58.6Zm10.4,39.3h-26.4l11.3-31.3h2l13.1,31.3Z"/>
  <rect class="cls-1" x="423" y="178.4" width="7.3" height="59.9"/>
  <path class="cls-1" d="M424,179.4h5.3v57.9h-5.3v-57.9Z"/>
  <path class="cls-1" d="M735,314.9c.6-.1,2.9-.4,3.1,.6,.1,.4-.1,.8-.3,1.1-1.5,3-3.8,5.5-6,8-.8,.9-5.7,5.3-5.4,1.6,.1-1.1,.3-2.3,.8-3.3,.2-.4,.5-.8,.8-1.2,1.5-2,3-4,4.9-5.8,.7-.5,1.4-.8,2.1-1Z"/>
  <polygon class="cls-1" points="122.56 57.17 124.08 52.49 127.82 45.9 132.41 45.9 133.49 48.99 129.21 56.81 125.7 60.31 122.56 57.17"/>
  <path class="cls-1" d="M128.4,46.9h3.3l.7,2-4,7.3-2.7,2.7-2-2,1.3-4,3.4-6Z"/>
  <path class="cls-1" d="M712.8,302.5c3-6.6,5.4-13.3,6-20.6,.2-2.1-.1-4.8-2.1-5.7-2.4-1.1-4.9,1.4-6.3,3.8-8.6,14.7-11.7,31.9-16.3,48.3-.7,2.4-1.5,3-3.8,3.6-2.4,.6-5.3,.4-7.7,.6-.3,0-.6,0-.9,.2-.9,.4-.8,1.6-.7,2.6,.9,.4,1.8,.9,2.6,1.3-.5,1.6-.2,3.4-.8,4.9-.3,.7-.7,1.4-1.2,2-4,5.7-7.8,11.3-13.3,15.7-1.7-.1-3.3-1.2-4.1-2.7-.4-.7-.6-1.5-.8-2.3-1.1-4.5-2.4-9.2-2.6-13.8-.1-2.6-.3-5.2-.5-7.7,.8-.8,2.1-1.7,2.7-2.7,.8-1.3-.5-2.8-1.4-3.8-2.1-2.3-5.5-3.4-8.5-2.7-2.4,.6-4.5,2.1-6.3,3.8-2.2,2.1-4,4.5-5.5,7.1-.2,.3-.3,.6-.6,.8-.6,.4-4.1-.7-4.3-.4-7.1,13.6-14.3,27.4-24.2,39.2-1.6,1.9-3.6,2.9-5.8,4.1l.7-10.7,.7-4,4-16c.7-2.4,1.3-4.8,2-7.2,.5-1.8,1-3.6,1.5-5.5,.2-.8,.6-1.6,.8-2.4,.2-.9,.2-2.4-.1-3.2-.3-.8,0-.5-.8-.8-.3-.1-.9-.1-1.2-.1-1.8,0-3.5,1.3-5.1,2.1-4.2,2-8.5,3.7-13,5.1,4.5-6.1,7.7-13.1,9.4-20.5,.5-2.1,.7-4.6-.9-6-2-1.8-5.1-.4-7.2,1.2-5.5,4.4-9.3,11-10.4,17.9-.2,1.5-.4,3.2-1.2,4.5-.7,1-1.7,1.8-2.7,2.5-9.2,6.5-18.5,13-27.7,19.5,1.7-9.2,2.7-18.5,2.8-27.8-1.7-.1-3.1,1.4-4.2,2.8-5,6.5-10.1,13-15.1,19.5,.1-7.8,2.5-15.6,6.7-22.3,1.7-2.7,4.3-5.5,7.5-5.4,2.6,.1,5.3,1.9,7.5,.7-.2-3.9-4.7-6.6-8.6-5.9-3.9,.6-7,3.5-9.4,6.6-6.1,7.8-9.1,18-8.3,27.9,.1,1.2,.3,2.6,1.3,3.4,1.7,1.5,4.4,.2,6.1-1.3,3.8-3.2,7.1-7,9.6-11.2,0,5.9-.1,12-2.6,17.3-2.2,4.7-6.2,8.3-9.9,12-14.8,14.8-27.1,32.6-32.6,52.8-2,7.3-3.1,15-1.3,22.3,1.2,4.9,4.3,10,9.3,10.6,4,.5,7.7-2.2,10.5-5.1,5.2-5.5,8.5-12.5,11.4-19.5,7.7-18.5,12.6-38,15.7-57.8,.7-4.6,1.4-9.4,4.3-13.1,1.7-2.2,4-3.8,6.3-5.4,7.6-5.3,15.2-10.6,22.7-15.9,1.4-1,3-2,4.6-1.8,1,.1,1.9,.7,2.8,1.1,5.9,2.7,12.6-.8,18-4.2-3.7,12.2-7.4,24.6-8.8,37.3-.3,2.9-.5,6.1,1.2,8.5,4,5.8,11.6-1.5,14.4-4.9,7.9-9.6,13.8-20.1,19.5-31.1-.3,.6,0,2.1,.1,2.7,.1,1.8-.1,3.5-.1,5.3,0,2.1,.2,4.2,1.4,5.9,1.3,.1,2.7,.3,4-.2,.7-.3,1.3-.7,1.9-1.1,1.2-.9,2.3-1.7,3.3-2.8,.9-.9,1.7-2,2.5-3,1.6-3.2,4.4-5.8,7-8.2-.4,5.8,1,11.7,4,16.7,.6,1,1.3,2,2.2,2.7,1.8,1.4,4.3,1.7,6.5,1.1,2.4-.6,4.2-2.2,6.2-3.5,1.9-1.3,3-3.4,4.2-5.3,3.3-5.1,6.6-10.2,10-15.3,.8-1.2,1.6-2.4,2.9-3-9.1,34.4-16.3,69.3-21.5,104.5,1.5,1.8,4.7,.9,5.9-1.1s1.2-4.5,1.3-6.8c.2-6.6,1.4-13.1,2.7-19.6,5.1-26,10.7-51.9,16.9-77.6,4.2,0,8.3-.3,12.5-.8,1.4-.2,3-.4,4-1.4s1.3-2.9,.1-3.7c-5.3-.1-10.7,.4-15.9,1.2,3.7-10,9.6-19.2,14.1-28.8Zm-4.3-9.2c.1-.3,.2-.6,.3-.8,.7-1.7,1.4-3.3,2.2-4.9,.7-1.4,1.5-3.5,2.6-4.6,0,0,.5,1.6,.6,1.7,.1,.9-.2,1.8-.6,2.6-1.3,3.4-2.6,6.9-3.8,10.3-1.2,3.1-2.1,6.7-4.1,9.4-.9-1.3-.5-3.3-.1-4.8,.8-3,1.7-6,2.9-8.9Zm-167.3,107.1l-6,20-4,10.7-5.3,10.7-5.3,7.3-4,2.7h-3.3l-3.3-4-1.3-6.7v-8l2-10.7,5.3-13.3,6.7-12,8-11.3,6-7.3,9.3-10,1.3-.7,.7,2.7-6.8,29.9Zm49.9-69.2h0c-.1-3.8,.7-7.4,2.5-10.8,.4-.8,6.2-8.9,6.7-8.4,.6,.5,.7,1.4,.6,2.2-.1,1.5-.7,3-1.3,4.4-1.1,2.7-2.3,5.4-3.7,8-1.1,2-2.6,4-4.8,4.6Zm67.6,1.8c-.6,1-1.2,1.9-2,2.8-3.1,3.3-6.9,7.8-11.1,13.6-1,1.4-2.1,2.9-3.8,3.1-.6-.4-.6-1.2-.6-1.9,.5-7.9,3.9-14.9,8.8-21,1-1.2,2.2-2.3,3.8-2.4,.8-.1,1.6,.1,2.4,.3,1.3,.3,2.8,.8,3.3,2,.3,.7,.1,1.6-.2,2.3-.2,.4-.4,.8-.6,1.2Z"/>
  <polygon class="cls-1" points="423.7 174.5 423.7 169.93 428.82 161.1 434.4 161.1 434.4 165.05 429.3 174.5 423.7 174.5"/>
  <path class="cls-1" d="M429.4,162.1h4v2.7l-4.7,8.7h-4v-3.3l4.7-8.1Z"/>
  <path class="cls-1" d="M466.1,336c-.3,.1-.5,.3-.7,.4-.9,.6-1.7,1.4-2.5,2.2-4.6,4.3-10.1,6.5-16.2,7.8,.4-.1,.6-3.3,.6-3.7,.1-1.5,.1-3,0-4.5-.2-3-1-6-2.5-8.5-1.2-2.1-4.7-3.5-6.9-1.9-2.6,1.8-5.1,3.9-7.4,6.2-2.1,2.1-4,5.3-4.8,8.2-.4,1.7-.5,3.4-.5,5.1,0,1.8,0,3.7,.7,5.4,1.5,3.9,6.3,7.3,10.5,6.5,2.1-.4,3.9-1.7,5.4-3.3,.7-.7,1.3-1.5,1.9-2.3,.3-.3,1.1-1.7,1.5-1.8,2.4-.4,4.8-.7,7.1-1.4,2.9-.9,5.6-2.3,8.2-3.9,3.6-2.3,7-4.8,8.9-8.5,.6-1.2-.4-2.6-1.7-2.5h0c-.5,.1-1.1,.3-1.6,.5Zm-26.2,15.1c-.1,.2-.3,.4-.5,.6-1.3,1.1-2.7,2.8-4.6,2.7-.9-.1-1.7-.6-2.4-1.1-1.5-1.2-2.1-2.4-2.3-4.3-.2-2-.2-4,0-6,.1-1.1,0-3.7,1.4-4.1,.9-.3,1.9,.6,2.6,1l3.3,6c.6,.5,1.2,.9,1.8,1.4,1.2,.9,.9,1.8,.9,3.2-.1,.1-.1,.3-.2,.6h0Zm2.6-8.1c-.1,0-.1,.1-.2,.1-.6,.2-1.8-.5-2.2-.9-.4-.4-.7-.9-.9-1.3-1-1.8-1.9-3.7-1.9-5.7,0-.9,.2-1.9,1-2.3,.7-.4,1.7-.2,2.5,0,.3,.1,.6,.2,.9,.5,.2,.2,.3,.5,.3,.8,.5,2.1,.8,4.2,.9,6.4-.1,.7,.1,2-.4,2.4Z"/>
  <path class="cls-1" d="M533.1,335.4c-.1,0-.1-.1,0,0-.3-.1-.5-.1-.7-.1-1.7,.1-3,.9-4.2,2.1-3,3-6.6,5.4-10.5,7.2-2.1,.9-4.2,1-6.5,1.3,.4,0-.1-8.3-.2-9-.6-3.5-2.2-6.8-4.5-9.5-2.1-.7-4.4,.3-6.2,1.5-3.6,2.3-7.1,5.4-9.3,9.1-3.5,5.9-3.6,14.2,1.8,19,.7,.7,1.6,1.2,2.5,1.6,2.7,1.2,6,.7,8.4-.9,2.2-1.4,3.8-3.9,5.5-5.8,.3-.3,2.1-.4,2.5-.4,1.2-.2,2.3-.4,3.5-.7,2.4-.7,4.7-1.6,6.9-2.7,4.3-2.2,8.1-5.3,11.2-9.1,.2-.2,.3-.4,.4-.6,.1-.3,0-.6,0-.8-.1-.4-.2-.9-.3-1.3,0-.5-.1-.8-.3-.9Zm-30.7,17.6c-.4,.4-.8,.7-1.3,.9-2,1-4.5,.2-6-1.5-1.4-1.7-1.9-4-1.8-6.2,.1-1.9,.6-3.7,1.3-5.5,.2-.6,.5-1.2,1-1.7,.3-.2,1.1-.8,1.5-.7,.6,.1,1.1,1.7,1.3,2.2,1,1.8,1.9,3.6,3.2,5.2,.8,1.1,3.3,2.6,2.7,4.1-.4,1.2-1,2.3-1.9,3.2Zm3.2-10.9c-.5,.4-1.1,.4-1.9-.2-.5-.4-.9-.9-1.2-1.5-1-1.8-2.5-6.9,0-8.1,.8-.4,1.9,0,2.4,.7s.8,1.6,1,2.5c.4,1.6,.7,3.4,.4,5-.1,.7-.3,1.3-.7,1.6Z"/>
</svg>