<?xml version="1.0" encoding="UTF-8"?>
<svg id="Capa_1" data-name="Capa 1" xmlns="http://www.w3.org/2000/svg" viewBox="0 0 1042.46 479.24">
  <defs>
    <style>
      .cls-1 {
        fill: #060606;
      }
    </style>
  </defs>
  <path class="cls-1" d="M1020.57,105.48l-3.33-6.66-6.66-5.99-28.63-16.64-18.64-10.65-34.62-19.97-15.98-9.32-11.98-6.66-10.65-5.33-5.99-1.33-.67,.67-6.66,2-27.96,15.98-12.65,7.32-13.98,7.99-15.31,8.66-15.98,9.32-15.31,8.66-19.31,11.32-4.66,3.99-2,7.99-.67,19.97v115.85l.67,5.33,1.33,3.99,3.99,5.99,3.33,2.66,7.32,4.66,19.31,11.32,17.31,9.99,15.31,8.66,17.31,9.99,37.28,21.3,7.99,3.33,5.33,.67,6.66-1.33,10.65-5.33,34.62-19.97,18.64-10.65,17.31-9.99,15.98-9.32,17.98-9.99,9.99-6.66,2.66-3.99,1.33-7.32V107.48l-.67-2Zm-251-2l15.31-8.66,11.32-6.66,17.31-9.99,15.31-8.66,13.98-7.99,15.31-8.66,9.99-5.99h1.33l-.67,3.33-8.66,19.31-10.65,23.3-9.99,21.97-8.66,19.31-1.33,5.33-.67,13.32-.67,37.95-3.33-2.66-6.66-10.65-5.33-7.32-11.32-16.64-8.66-12.65-10.65-15.31-6.66-9.99-6.66-9.32,.67-2.66Zm151.8,31.96l4.66,3.99,1.33,3.33v68.58l-2,4.66-3.33,2.66-9.32,.67h-60.59l-5.33-1.33-3.33-4.66-.67-2v-66.58l2-5.99,3.33-2.66,1.33-.67h71.9Zm-33.95,163.78l-6.66,13.98-3.33-.67-13.98-7.99-15.31-8.66-15.98-9.32-16.64-9.32-15.98-9.32-17.31-9.99-13.98-7.99-4.66-5.33V124.13l3.33,3.33,4.66,7.32,10.65,15.31,14.65,21.3,11.32,16.64,7.32,10.65,12.65,18.64,6.66,9.32,3.99,3.33,7.99,2.66,5.99,.67,64.58,.67-.67,3.33-9.32,19.97-11.32,23.3-8.66,18.64Zm98.54-39.95l-17.31,9.99-15.98,9.32-15.31,8.66-17.31,9.99-10.65,5.99-8.66,5.33-2-.67,7.32-14.65,7.99-17.98,10.65-21.97,7.32-15.31,7.99-17.31,1.33-7.32,.67-51.26,3.33,3.33,5.33,7.99,8.66,12.65,10.65,15.31,5.33,7.99,13.98,20.64,7.32,10.65,4.66,6.66,.67,2.66-15.98,9.32Zm21.3-29.96l-2-.67-4.66-6.66-11.98-17.98-13.98-20.64-8.66-12.65-19.31-28.63-9.32-13.98-13.32-5.99-4.66-.67-66.58-.67,.67-3.33,11.98-25.97,12.65-27.3,8.66-19.31,2-3.99,3.33,.67,17.98,9.99,18.64,10.65,17.31,9.99,15.31,8.66,17.31,9.99,16.64,9.32,9.32,5.99,2,2.66,.67,6.66v113.85Z"/>
  <path class="cls-1" d="M21.23,326.52H328.82v10.12H21.23v-10.12Z"/>
  <path class="cls-1" d="M451.99,237.31h7.99l3.33,2,.67,1.33v3.99l-3.33,3.33-6.66,4.66-5.99,3.33-2.66-1.33,.67-2.66,6.66-4.66,5.33-3.33,.67-2-12.65,1.33-15.98,3.33-17.31,4.66-11.32,3.99-1.33,3.99-7.99,36.62-9.32,43.28-.67,2.66,11.32-2.66,5.33-.67h11.32v3.33l-.67,.67-16.64,2-11.32,2.66-2.66,10.65-7.99,39.95-2,11.32-.67,7.99,3.33,.67v3.33l-3.99,5.99-2,1.33h-3.33v-8.66l3.33-23.3,7.99-39.28,2-7.99-14.65,6.66-10.65,6.66-6.66,4.66-2-.67,.67-3.33,3.33-3.33,9.32-5.99,6.66-3.99,13.32-5.99h1.33l2.66-11.32,11.98-55.93,3.99-17.31v-2l-17.98,7.32-15.98,7.32-14.65,7.99-7.99,4.66-2.66-.67v-2.66l3.33-2.66,12.65-7.32,9.99-5.33,19.31-8.66,15.31-5.99,1.33-3.33,.67-5.33h3.99l.67,2-.67,4.66,16.64-5.33,15.31-3.99,17.98-2.66Z"/>
  <path class="cls-1" d="M490.61,261.94l2.66,.67,.67,1.33-5.99,25.3,22.64-.67h38.62l14.65,.67,4.66,1.33v3.99h-82.56l-1.33,7.32-9.32,41.28-7.32,35.29-5.99,32.62-1.33,7.99-.67,13.98-.67,.67h-5.33v-5.99l2.66-18.64,7.32-37.95,5.99-27.3,6.66-30.63,3.99-17.31,.67-1.33-17.31,.67h-25.97l-.67-.67v-3.33l1.33-.67,41.28-1.33h2.66l2.66-11.98,3.99-14.65,1.33-.67Z"/>
  <path class="cls-1" d="M73.83,178.05h5.28l23.68,34.54,24.77-34.54h5.25v59.25h-5.73v-48.6l-24.3,32.94-23.64-32.94v48.6h-5.33v-59.25h0Z"/>
  <path class="cls-1" d="M300.98,63.55c4.84-.91,9.92-.65,14.66,.69,7.77,2.2,18.3,8.62,18.42,17.7-.9,.02-4.58,.03-5.4,0-2.05-6.39-8.41-10.27-12.14-11.83-11.42-4.75-26.08,.88-31.38,12.05s-.39,26.09,10.5,31.93c13.71,7.35,34.52-1.33,34.36-18.16-7.28,.04-24.48,.19-24.48,.19l-1.35-5.3h13.32s16.64,0,16.64,0c2.74,7.43-1.37,18.05-5.72,22.45-15.29,15.47-42.91,9.96-49.77-10.74-4.18-12.61,1.11-27.95,12.34-35.1,3.05-1.94,6.46-3.23,9.99-3.89Z"/>
  <path class="cls-1" d="M770.93,322.9c2.23-.15,5.17,.98,6.75,2.48,1.17,1.12,2.15,2.56,3.21,3.81-.43,.43-.85,.88-1.29,1.29-.88,.82-.84,.85-1.88,.22-2.26-1.37-4.46-3.15-7.3-2.56-2.1,.44-3.69,2.14-4.97,3.86-2.8,3.75-4.62,7.84-5.89,12.31-.19,.67-2.39,7.95-1.42,8.13,.75,.13,1.5-.27,2.02-.82s.85-1.25,1.23-1.91c.7-1.21,1.56-2.32,2.43-3.42,0-.45,1.28-1.63,1.57-2,.64-.82,1.28-1.63,1.92-2.45,1.28-1.63,2.56-3.26,3.84-4.89,.89-1.13,1.69-2.53,2.85-3.33,.66-.46,1.61-1.63,2.22-1.11,2.13,1.78,1.2,6.96,1.8,10.44,.38,2.23,.78,4.45,1.15,6.68,.55,3.29,.31,7.75,3.23,9.45,4.52,2.64,9.04-5.29,11.94-9.65,1.96-2.94,3.57-6.09,5.38-9.12,1.06-1.77,1.99-4.16,3.8-5.31,.89-.57,2.2-.76,2.64,.44,.56,1.52-.91,4.44-1.5,5.8-3.01,6.96-7.37,13.32-12.77,18.64-1.25,1.23-2.58,2.43-4.16,3.21-2.82,1.41-6.1,1-8.5-1.02-2.49-2.09-3.99-5.16-4.83-8.29-.93-3.45-.6-7.47-2.18-10.62,.21,.43-3.53,4.91-3.89,5.39-1.77,2.35-3.68,4.59-5.71,6.71-.96,1-1.97,1.99-3.23,2.56-1.59,.72-3.51,.68-5.07-.11-1.18-2.17-1.54-4.71-1.43-7.18,.18-3.81,2.02-7.61,2.02-11.37l-3.99,5.33-4.66,5.99s-7.99,7.99-7.99,7.99c-.77,.77-2.08,1.3-2.99,1.92-2.97,2.02-7.44,3.75-10.87,1.84-1.71-.95-2.85-2.72-3.41-4.6s-.59-3.86-.52-5.82c.18-5.18,1.04-10.34,2.56-15.29,.19-.62,.39-1.24,.76-1.77,.98-1.41,3.14-1.83,4.57-.87-1.83,7.55-2.52,15.38-2.05,23.13,.01,.2,.03,.42,.18,.56,.13,.13,.33,.15,.51,.16,2.26,.13,4.4-.99,6.28-2.24,4.21-2.81,7.78-6.46,11.19-10.19,2.92-3.2,5.83-6.62,7.07-10.78,.17-.57,3.09,1.14,3.35,1.28,2.02,1.08,5.15-4.84,6.17-6.11,2.02-2.51,4.4-4.83,7.38-6.14,.7-.3,1.42-.55,2.18-.64,.09-.01,.19-.02,.28-.03Z"/>
  <path class="cls-1" d="M190.34,62.76h4.17l35.11,48.72,.67-48.72h5.33v59.52h-4.8l-34.5-47.52-.65,46.7-.67,.82h-4.66V62.76h0Z"/>
  <path class="cls-1" d="M476.62,178.05h5.27l32.01,49.27v-48.6h5.99v58.59h-7.02l-32.26-47.94v47.94h-5.99v-59.25h2Z"/>
  <path class="cls-1" d="M621.11,62.34c3.78-.25,7.63,.38,11.25,1.55,2.13,.69,4.23,1.59,5.93,3.04,2,1.71,3.32,4.06,4.54,6.39,.6,1.14,2.47,5.61,2.56,6.73-1.2,.04-3.23,.04-4.34,0-1.59-2.45-3.13-5.07-3.9-6.17-2.17-3.1-5.53-4.62-9.04-5.31-3.87-.76-7.93-.57-11.68,.65-2.51,.81-4.99,2.16-6.36,4.4-1.65,2.71-1.33,6.37,.44,9.01,1.56,2.32,4.03,3.86,6.6,4.95,3.73,1.59,7.74,2.36,11.65,3.4,4.3,1.14,8.64,2.71,11.99,5.75,1.73,1.58,3.14,3.53,3.97,5.72,1.52,4.02,.93,8.78-1.54,12.3-1.74,2.48-4.29,4.3-7.02,5.6-8.59,4.09-19.55,3.29-27.06-2.55-4.43-3.45-7.39-13.46-7.39-13.46,0,0,4.32-.86,4.32-.86,1.33,2.44,2.7,7.1,6.89,10.4,1.06,.84,2.26,1.5,3.51,2.01,6.24,2.52,13.63,2,19.45-1.37,1.06-.61,2.1-1.34,2.76-2.37,.66-1.01,.9-2.24,1.03-3.44,.24-2.31,.04-4.79-1.28-6.71-1.11-1.61-2.88-2.63-4.65-3.47-3.63-1.71-7.51-2.86-11.38-3.93-4.14-1.15-8.39-2.25-12.01-4.58-5.68-3.65-8.25-10.22-5.81-16.66,1.92-5.05,6.62-8.76,11.82-10.24,1.54-.44,3.12-.7,4.72-.8Z"/>
  <path class="cls-1" d="M565.84,178.72h34.62v5.99h-29.29v19.97h26.63v5.33h-26.63v21.97h29.29v5.33h-34.62v-58.59Z"/>
  <path class="cls-1" d="M528.56,63.54h34.62v5.99h-29.29v19.97h26.63v5.33h-26.63v21.97h29.29v5.33h-34.62V63.54Z"/>
  <path class="cls-1" d="M454.99,63.54h5.33v53.26h29.29v5.33h-34.62V63.54Z"/>
  <path class="cls-1" d="M378.09,63.54h34.62v5.99h-29.29v19.97h26.63v5.33h-26.63v21.97h29.29v5.33h-34.62V63.54Z"/>
  <path class="cls-1" d="M302.03,196.54c-.3-15.52-14.75-17.83-19.95-17.82-2.03,0-20.5,0-20.5,0v58.59h5.33v-21.3h15.31l15.16,21.3h5.29s-13.75-22.55-13.79-22.63c-.08-.2,13.44-3.06,13.15-18.13Zm-11.27,11.91c-.19,.1-.39,.19-.59,.27-3.09,1.34-6.31,1.37-9.61,1.49-3.88,.14-13.66-.2-13.66-.2v-25.97s8.57,0,8.57,0c7.75-.08,18.52-.67,21.02,8.42,.46,1.66,.51,3.39,.5,5.11,0,1.6-.08,3.23-.57,4.75-.89,2.72-3.09,4.86-5.66,6.13Z"/>
  <path class="cls-1" d="M644.4,178.72h34.62l-.67,5.01-32.62,48.25h33.95v5.33h-39.86l-.08-5.33,28.63-43.28,3.13-4.66h-31.76l-.67-5.33h5.33Z"/>
  <path class="cls-1" d="M340.14,178.72h43.94v5.33h-19.97v53.26h-5.33v-53.26h-19.97v-5.33h1.33Z"/>
  <path class="cls-1" d="M200.33,178.72h-5.88l-24.41,58.59h5.74l6.05-13.98h30.25l5.54,13.98h5.72l-23.02-58.59Zm10.44,39.28h-26.42l11.32-31.29,1.21,.02,.79-.02,13.11,31.29Z"/>
  <path class="cls-1" d="M129.06,63.54h-5.88l-24.41,58.59h5.74l6.05-13.98h30.25l5.54,13.98h5.72l-23.02-58.59Zm10.44,39.28h-26.42l11.32-31.29,1.21,.02,.79-.02,13.11,31.29Z"/>
  <path class="cls-1" d="M424.03,179.39h5.33v57.92h-5.33v-57.92Z"/>
  <path class="cls-1" d="M734.97,314.89c.64-.15,2.91-.38,3.14,.58,.09,.38-.09,.77-.27,1.12-1.55,2.96-3.76,5.51-5.97,8.02-.8,.91-5.68,5.32-5.39,1.62,.09-1.13,.26-2.27,.81-3.28,.23-.43,.53-.83,.82-1.22,1.51-2.01,3.04-4.03,4.88-5.75,.6-.56,1.27-.91,1.98-1.08Z"/>
  <path class="cls-1" d="M128.42,46.89h3.33l.67,2-3.99,7.32-2.66,2.66-2-2,1.33-3.99,3.33-5.99Z"/>
  <path class="cls-1" d="M712.79,302.47c3.04-6.58,5.39-13.33,5.96-20.57,.17-2.15-.11-4.79-2.06-5.69-2.44-1.13-4.91,1.45-6.26,3.77-8.57,14.72-11.67,31.88-16.32,48.27-.67,2.38-1.51,3.04-3.77,3.6-2.38,.6-5.28,.41-7.73,.57-.3,.02-.62,.04-.89,.18-.85,.43-.82,1.63-.67,2.58,.88,.45,1.76,.89,2.65,1.34-.47,1.59-.2,3.35-.79,4.91-.28,.73-.73,1.38-1.18,2.02-3.96,5.67-7.84,11.33-13.33,15.65-1.71-.13-3.32-1.19-4.11-2.71-.38-.73-.58-1.54-.77-2.35-1.05-4.49-2.37-9.18-2.62-13.79-.14-2.58-.34-5.16-.52-7.74,.81-.81,2.11-1.7,2.69-2.68,.75-1.28-.5-2.83-1.45-3.84-2.12-2.26-5.45-3.42-8.5-2.73-2.44,.55-4.53,2.11-6.33,3.84-2.17,2.08-4.03,4.46-5.53,7.07-.16,.28-.33,.58-.61,.76-.57,.37-4.11-.75-4.27-.44-7.13,13.62-14.33,27.36-24.17,39.18-1.61,1.93-3.61,2.89-5.75,4.12l.67-10.65,.67-3.99s3.99-15.98,3.99-15.98c.67-2.39,1.34-4.79,2.01-7.18,.51-1.82,1.02-3.64,1.53-5.47,.23-.81,.65-1.64,.82-2.45,.18-.86,.22-2.35-.13-3.18s0-.45-.79-.77c-.3-.12-.92-.14-1.25-.13-1.84,.01-3.52,1.29-5.14,2.06-4.2,2.01-8.53,3.73-12.97,5.13,4.52-6.09,7.75-13.13,9.41-20.53,.47-2.08,.68-4.59-.92-6-1.99-1.76-5.14-.44-7.22,1.22-5.53,4.41-9.32,10.95-10.39,17.94-.24,1.55-.37,3.17-1.21,4.49-.66,1.05-1.71,1.79-2.72,2.5-9.23,6.49-18.47,12.97-27.7,19.46,1.73-9.15,2.66-18.45,2.77-27.77-1.75-.11-3.11,1.42-4.18,2.8-5.04,6.5-10.07,13-15.11,19.5,.14-7.85,2.48-15.65,6.71-22.27,1.74-2.73,4.28-5.5,7.51-5.43,2.57,.06,5.25,1.92,7.51,.68-.17-3.93-4.71-6.55-8.6-5.95s-7.02,3.49-9.43,6.6c-6.08,7.83-9.09,17.99-8.26,27.87,.1,1.24,.32,2.59,1.26,3.4,1.72,1.5,4.38,.2,6.14-1.25,3.82-3.15,7.08-6.98,9.59-11.25-.03,5.87-.1,11.97-2.62,17.28-2.24,4.71-6.19,8.34-9.89,12.02-14.85,14.77-27.12,32.64-32.62,52.85-1.98,7.27-3.06,14.99-1.31,22.32,1.16,4.87,4.32,10,9.3,10.59,4.01,.48,7.72-2.18,10.47-5.13,5.15-5.54,8.51-12.49,11.41-19.48,7.65-18.49,12.57-38.04,15.69-57.81,.72-4.58,1.44-9.4,4.26-13.09,1.68-2.2,3.99-3.82,6.26-5.41,7.58-5.29,15.16-10.58,22.74-15.87,1.39-.97,2.96-1.98,4.63-1.76,1,.14,1.87,.7,2.79,1.11,5.87,2.66,12.56-.85,18.04-4.24-3.69,12.25-7.4,24.58-8.81,37.3-.32,2.92-.46,6.11,1.2,8.52,4,5.81,11.56-1.45,14.36-4.85,7.91-9.59,13.77-20.13,19.5-31.06-.32,.6,.03,2.06,.05,2.74,.05,1.78-.11,3.54-.14,5.31-.03,2.05,.23,4.21,1.41,5.89,1.34,.14,2.73,.27,3.99-.2,.69-.26,1.31-.7,1.91-1.13,1.17-.85,2.33-1.74,3.35-2.78,.91-.93,1.69-1.97,2.48-3,1.59-3.18,4.38-5.77,6.96-8.16-.42,5.79,.99,11.7,3.97,16.68,.6,1,1.27,1.97,2.17,2.7,1.78,1.43,4.3,1.7,6.5,1.1,2.38-.64,4.19-2.22,6.19-3.54s2.95-3.4,4.21-5.32l9.97-15.29c.77-1.18,1.61-2.43,2.91-3-9.09,34.39-16.28,69.28-21.54,104.46,1.5,1.79,4.67,.89,5.94-1.07s1.24-4.46,1.3-6.8c.18-6.6,1.42-13.12,2.7-19.6,5.11-25.98,10.73-51.86,16.87-77.62,4.17-.03,8.34-.28,12.49-.77,1.43-.17,2.95-.41,4.01-1.38s1.31-2.94,.12-3.75c-5.33-.05-10.66,.36-15.91,1.23,4.05-9.84,10-19.09,14.46-28.72Zm-4.3-9.17c.11-.28,.22-.56,.34-.83,.68-1.67,1.43-3.3,2.24-4.91,.71-1.42,1.47-3.46,2.6-4.56,0,0,.54,1.56,.56,1.72,.08,.89-.25,1.79-.55,2.61-1.28,3.43-2.56,6.85-3.84,10.28-1.15,3.09-2.06,6.75-4.06,9.42-.94-1.33-.48-3.34-.13-4.8,.75-3.04,1.7-6.03,2.85-8.94Zm-167.29,107.12l-5.99,19.97-3.99,10.65-5.33,10.65-5.33,7.32-3.99,2.66h-3.33l-3.33-3.99-1.33-6.66v-7.99l2-10.65,5.33-13.32,6.66-11.98,7.99-11.32,5.99-7.32,9.32-9.99,1.33-.67,.67,2.66-6.66,29.96Zm49.93-69.26s-.03,0-.05,.01c-.01-3.79,.76-7.45,2.57-10.78,.43-.79,6.16-8.87,6.68-8.39,.57,.53,.68,1.4,.62,2.18-.12,1.54-.72,2.99-1.31,4.42-1.13,2.71-2.28,5.42-3.73,7.97-1.12,1.97-2.6,3.97-4.78,4.59Zm67.52,1.81c-.55,1.01-1.23,1.93-2.03,2.78-3.1,3.32-6.94,7.76-11.09,13.64-.97,1.38-2.13,2.92-3.81,3.1-.59-.36-.64-1.19-.59-1.88,.53-7.86,3.95-14.88,8.77-20.98,.95-1.21,2.24-2.28,3.77-2.44,.82-.08,1.63,.1,2.43,.29,1.32,.31,2.83,.78,3.31,2.04,.27,.73,.11,1.55-.19,2.27-.17,.4-.36,.8-.57,1.18Z"/>
  <path class="cls-1" d="M429.35,162.07h3.99v2.66l-4.66,8.66h-3.99v-3.28l4.66-8.04Z"/>
  <path class="cls-1" d="M466.07,336.03c-.25,.12-.5,.26-.74,.43-.92,.63-1.69,1.43-2.51,2.19-4.61,4.3-10.1,6.5-16.16,7.84,.4-.09,.56-3.28,.59-3.66,.12-1.51,.14-3.04,.02-4.55-.23-2.99-1.01-5.95-2.54-8.54-1.22-2.06-4.69-3.47-6.9-1.94-2.63,1.83-5.09,3.89-7.35,6.15-2.14,2.14-4,5.25-4.75,8.2-.42,1.66-.48,3.4-.49,5.11-.01,1.82,.04,3.69,.72,5.39,1.55,3.85,6.29,7.32,10.52,6.48,2.13-.42,3.95-1.74,5.41-3.3,.67-.72,1.26-1.52,1.91-2.26,.27-.31,1.13-1.69,1.54-1.76,2.37-.43,4.79-.67,7.11-1.39,2.9-.9,5.62-2.3,8.17-3.92,3.61-2.29,6.97-4.82,8.93-8.52,.62-1.18-.36-2.61-1.68-2.46,0,0-.02,0-.03,0-.63,.07-1.21,.23-1.76,.5Zm-26.15,15.08c-.11,.23-.32,.41-.52,.57-1.32,1.09-2.7,2.83-4.6,2.7-.9-.06-1.72-.56-2.42-1.12-1.46-1.17-2.12-2.43-2.3-4.3-.2-1.99-.21-3.99-.03-5.98,.1-1.08,.04-3.66,1.36-4.12,.92-.32,1.86,.59,2.63,.97,0,0,3.33,5.99,3.33,5.99,.6,.45,1.21,.9,1.81,1.36,1.15,.86,.86,1.82,.87,3.23,0,.21,0,.43-.07,.63,0,.02-.02,.05-.03,.07Zm2.57-8.08c-.05,.05-.11,.08-.17,.11-.56,.21-1.83-.51-2.21-.88-.39-.38-.66-.85-.92-1.33-.97-1.77-1.9-3.65-1.92-5.67-.01-.88,.22-1.87,.97-2.33,.73-.44,1.66-.23,2.48,.03,.32,.1,.65,.22,.87,.47,.2,.23,.28,.55,.35,.85,.47,2.1,.77,4.24,.88,6.38,.03,.58,.18,1.91-.32,2.36Z"/>
  <path class="cls-1" d="M533.06,335.38s-.05-.03-.07-.04c-.18-.1-.4-.09-.6-.07-1.72,.15-2.97,.89-4.17,2.07-3.03,2.99-6.59,5.43-10.47,7.17-2.1,.95-4.25,1.05-6.51,1.33,.37-.05-.1-8.29-.24-9.04-.63-3.49-2.18-6.82-4.49-9.52-2.09-.71-4.35,.35-6.21,1.55-3.57,2.31-7.1,5.38-9.29,9.08-3.46,5.88-3.55,14.2,1.84,19.04,.74,.66,1.58,1.21,2.5,1.61,2.71,1.17,5.98,.74,8.4-.89,2.16-1.44,3.78-3.9,5.48-5.84,.29-.34,2.08-.39,2.5-.44,1.17-.15,2.31-.36,3.46-.68,2.4-.66,4.72-1.58,6.93-2.73,4.3-2.23,8.13-5.32,11.21-9.06,.15-.19,.31-.38,.38-.61,.08-.27,.04-.56,0-.84-.08-.45-.17-.89-.27-1.34-.07-.28-.16-.58-.38-.75Zm-30.65,17.6c-.38,.38-.81,.7-1.3,.94-1.98,.96-4.51,.16-5.96-1.5s-1.94-3.98-1.8-6.18c.12-1.87,.64-3.73,1.25-5.5,.22-.63,.48-1.22,1-1.66,.27-.23,1.08-.76,1.45-.66,.55,.15,1.07,1.67,1.34,2.18,.97,1.79,1.95,3.59,3.17,5.22,.82,1.09,3.27,2.61,2.71,4.07-.42,1.09-1.02,2.23-1.88,3.08Zm3.19-10.91c-.45,.38-1.09,.4-1.9-.16-.54-.37-.93-.92-1.25-1.49-1-1.77-2.53-6.88,.02-8.13,.82-.4,1.86,.02,2.44,.73s.81,1.63,1.01,2.53c.38,1.64,.73,3.36,.41,5.04-.12,.64-.37,1.18-.73,1.49Z"/>
</svg>